<svg width="450" height="70" viewBox="0 0 450 70" fill="none" xmlns="http://www.w3.org/2000/svg">
<path d="M1.33105 18V52" stroke="black" stroke-width="2"/>
<path d="M19.2487 44V26.5455H25.4703C26.8225 26.5455 27.9447 26.7784 28.8367 27.2443C29.7345 27.7102 30.4049 28.3551 30.8481 29.179C31.2913 29.9972 31.5129 30.9432 31.5129 32.017C31.5129 33.0852 31.2884 34.0256 30.8396 34.8381C30.3964 35.6449 29.7259 36.2727 28.8282 36.7216C27.9362 37.1705 26.814 37.3949 25.4617 37.3949H20.7487V35.1278H25.2231C26.0754 35.1278 26.7686 35.0057 27.3026 34.7614C27.8424 34.517 28.2373 34.1619 28.4873 33.696C28.7373 33.2301 28.8623 32.6705 28.8623 32.017C28.8623 31.358 28.7345 30.7869 28.4788 30.304C28.2288 29.821 27.8339 29.4517 27.2941 29.196C26.76 28.9347 26.0583 28.804 25.189 28.804H21.8822V44H19.2487ZM27.8651 36.125L32.1776 44H29.1776L24.9504 36.125H27.8651ZM34.5129 44V30.9091H37.0612V44H34.5129ZM35.7998 28.8892C35.3566 28.8892 34.9759 28.7415 34.6578 28.446C34.3453 28.1449 34.189 27.7869 34.189 27.3722C34.189 26.9517 34.3453 26.5937 34.6578 26.2983C34.9759 25.9972 35.3566 25.8466 35.7998 25.8466C36.243 25.8466 36.6208 25.9972 36.9333 26.2983C37.2515 26.5937 37.4106 26.9517 37.4106 27.3722C37.4106 27.7869 37.2515 28.1449 36.9333 28.446C36.6208 28.7415 36.243 28.8892 35.7998 28.8892ZM46.0036 44.2642C44.7764 44.2642 43.7053 43.983 42.7906 43.4205C41.8758 42.858 41.1656 42.071 40.6599 41.0597C40.1542 40.0483 39.9014 38.8665 39.9014 37.5142C39.9014 36.1562 40.1542 34.9687 40.6599 33.9517C41.1656 32.9347 41.8758 32.1449 42.7906 31.5824C43.7053 31.0199 44.7764 30.7386 46.0036 30.7386C47.2309 30.7386 48.3019 31.0199 49.2167 31.5824C50.1315 32.1449 50.8417 32.9347 51.3474 33.9517C51.8531 34.9687 52.1059 36.1562 52.1059 37.5142C52.1059 38.8665 51.8531 40.0483 51.3474 41.0597C50.8417 42.071 50.1315 42.858 49.2167 43.4205C48.3019 43.983 47.2309 44.2642 46.0036 44.2642ZM46.0122 42.125C46.8076 42.125 47.4667 41.9148 47.9894 41.4943C48.5122 41.0739 48.8985 40.5142 49.1485 39.8153C49.4042 39.1165 49.532 38.3466 49.532 37.5057C49.532 36.6705 49.4042 35.9034 49.1485 35.2045C48.8985 34.5 48.5122 33.9347 47.9894 33.5085C47.4667 33.0824 46.8076 32.8693 46.0122 32.8693C45.211 32.8693 44.5463 33.0824 44.0178 33.5085C43.4951 33.9347 43.1059 34.5 42.8502 35.2045C42.6002 35.9034 42.4752 36.6705 42.4752 37.5057C42.4752 38.3466 42.6002 39.1165 42.8502 39.8153C43.1059 40.5142 43.4951 41.0739 44.0178 41.4943C44.5463 41.9148 45.211 42.125 46.0122 42.125ZM66.2025 44.2557C65.1457 44.2557 64.2025 43.9858 63.373 43.446C62.5491 42.9006 61.9014 42.125 61.4298 41.1193C60.9639 40.108 60.7309 38.8949 60.7309 37.4801C60.7309 36.0653 60.9667 34.8551 61.4383 33.8494C61.9156 32.8437 62.569 32.0739 63.3985 31.5398C64.2281 31.0057 65.1684 30.7386 66.2195 30.7386C67.032 30.7386 67.6855 30.875 68.1798 31.1477C68.6798 31.4148 69.0661 31.7273 69.3389 32.0852C69.6173 32.4432 69.8332 32.7585 69.9866 33.0312H70.14V26.5455H72.6883V44H70.1997V41.9631H69.9866C69.8332 42.2415 69.6116 42.5597 69.3218 42.9176C69.0377 43.2756 68.6457 43.5881 68.1457 43.8551C67.6457 44.1222 66.998 44.2557 66.2025 44.2557ZM66.765 42.0824C67.498 42.0824 68.1173 41.8892 68.623 41.5028C69.1343 41.1108 69.5207 40.5682 69.782 39.875C70.0491 39.1818 70.1826 38.375 70.1826 37.4545C70.1826 36.5455 70.0519 35.75 69.7906 35.0682C69.5292 34.3864 69.1457 33.8551 68.64 33.4744C68.1343 33.0937 67.5093 32.9034 66.765 32.9034C65.998 32.9034 65.3588 33.1023 64.8474 33.5C64.336 33.8977 63.9497 34.4403 63.6883 35.1278C63.4326 35.8153 63.3048 36.5909 63.3048 37.4545C63.3048 38.3295 63.4355 39.1165 63.6968 39.8153C63.9582 40.5142 64.3445 41.0682 64.8559 41.4773C65.373 41.8807 66.0093 42.0824 66.765 42.0824ZM81.9674 44.2642C80.6776 44.2642 79.5669 43.9886 78.635 43.4375C77.7089 42.8807 76.993 42.0994 76.4873 41.0938C75.9873 40.0824 75.7373 38.8977 75.7373 37.5398C75.7373 36.1989 75.9873 35.017 76.4873 33.9943C76.993 32.9716 77.6975 32.1733 78.6009 31.5994C79.51 31.0256 80.5725 30.7386 81.7884 30.7386C82.5271 30.7386 83.243 30.8608 83.9362 31.1051C84.6294 31.3494 85.2515 31.733 85.8026 32.2557C86.3538 32.7784 86.7884 33.4574 87.1066 34.2926C87.4248 35.1222 87.5839 36.1307 87.5839 37.3182V38.2216H77.1776V36.3125H85.0867C85.0867 35.642 84.9504 35.0483 84.6776 34.5312C84.4049 34.0085 84.0214 33.5966 83.5271 33.2955C83.0384 32.9943 82.4646 32.8438 81.8055 32.8438C81.0896 32.8438 80.4646 33.0199 79.9305 33.3722C79.4021 33.7187 78.993 34.1733 78.7032 34.7358C78.4191 35.2926 78.2771 35.8977 78.2771 36.5511V38.0426C78.2771 38.9176 78.4305 39.6619 78.7373 40.2756C79.0498 40.8892 79.4845 41.358 80.0413 41.6818C80.5981 42 81.2487 42.1591 81.993 42.1591C82.4759 42.1591 82.9163 42.0909 83.314 41.9545C83.7117 41.8125 84.0555 41.6023 84.3453 41.3239C84.635 41.0455 84.8566 40.7017 85.01 40.2926L87.422 40.7273C87.2288 41.4375 86.8822 42.0597 86.3822 42.5938C85.8879 43.1222 85.2657 43.5341 84.5157 43.8295C83.7714 44.1193 82.922 44.2642 81.9674 44.2642ZM103.752 26.5455H106.377V38.9205C106.377 40.0398 106.155 40.9972 105.712 41.7926C105.274 42.5881 104.658 43.196 103.862 43.6165C103.067 44.0312 102.135 44.2386 101.067 44.2386C100.084 44.2386 99.2004 44.0597 98.4163 43.7017C97.6379 43.3437 97.0214 42.8239 96.5669 42.142C96.118 41.4545 95.8936 40.6193 95.8936 39.6364H98.51C98.51 40.1193 98.6208 40.5369 98.8424 40.8892C99.0697 41.2415 99.3794 41.517 99.7714 41.7159C100.169 41.9091 100.624 42.0057 101.135 42.0057C101.692 42.0057 102.163 41.8892 102.55 41.6562C102.942 41.4176 103.24 41.0682 103.445 40.608C103.649 40.1477 103.752 39.5852 103.752 38.9205V26.5455ZM113.815 44.2898C112.985 44.2898 112.235 44.1364 111.565 43.8295C110.894 43.517 110.363 43.0653 109.971 42.4744C109.585 41.8835 109.391 41.1591 109.391 40.3011C109.391 39.5625 109.533 38.9545 109.818 38.4773C110.102 38 110.485 37.6222 110.968 37.3438C111.451 37.0653 111.991 36.8551 112.587 36.7131C113.184 36.571 113.792 36.4631 114.411 36.3892C115.195 36.2983 115.832 36.2244 116.32 36.1676C116.809 36.1051 117.164 36.0057 117.386 35.8693C117.607 35.733 117.718 35.5114 117.718 35.2045V35.1449C117.718 34.4006 117.508 33.8239 117.087 33.4148C116.673 33.0057 116.053 32.8011 115.229 32.8011C114.372 32.8011 113.695 32.9915 113.201 33.3722C112.712 33.7472 112.374 34.1648 112.187 34.625L109.792 34.0795C110.076 33.2841 110.491 32.642 111.036 32.1534C111.587 31.6591 112.221 31.3011 112.937 31.0795C113.653 30.8523 114.406 30.7386 115.195 30.7386C115.718 30.7386 116.272 30.8011 116.857 30.9261C117.448 31.0455 117.999 31.267 118.511 31.5909C119.028 31.9148 119.451 32.3778 119.781 32.9801C120.11 33.5767 120.275 34.3523 120.275 35.3068V44H117.786V42.2102H117.684C117.519 42.5398 117.272 42.8636 116.943 43.1818C116.613 43.5 116.19 43.7642 115.673 43.9744C115.156 44.1847 114.536 44.2898 113.815 44.2898ZM114.369 42.2443C115.073 42.2443 115.676 42.1051 116.176 41.8267C116.681 41.5483 117.065 41.1847 117.326 40.7358C117.593 40.2812 117.727 39.7955 117.727 39.2784V37.5909C117.636 37.6818 117.46 37.767 117.198 37.8466C116.943 37.9205 116.65 37.9858 116.32 38.0426C115.991 38.0937 115.67 38.142 115.357 38.1875C115.045 38.2273 114.783 38.2614 114.573 38.2898C114.079 38.3523 113.627 38.4574 113.218 38.6051C112.815 38.7528 112.491 38.9659 112.247 39.2443C112.008 39.517 111.889 39.8807 111.889 40.3352C111.889 40.9659 112.122 41.4432 112.587 41.767C113.053 42.0852 113.647 42.2443 114.369 42.2443ZM126.217 36.2273V44H123.669V30.9091H126.115V33.0398H126.277C126.578 32.3466 127.05 31.7898 127.692 31.3693C128.34 30.9489 129.155 30.7386 130.138 30.7386C131.03 30.7386 131.811 30.9261 132.482 31.3011C133.152 31.6705 133.672 32.2216 134.041 32.9545C134.411 33.6875 134.595 34.5937 134.595 35.6733V44H132.047V35.9801C132.047 35.0312 131.8 34.2898 131.305 33.7557C130.811 33.2159 130.132 32.946 129.269 32.946C128.678 32.946 128.152 33.0739 127.692 33.3295C127.237 33.5852 126.877 33.9602 126.609 34.4545C126.348 34.9432 126.217 35.5341 126.217 36.2273ZM143.655 44.2642C142.365 44.2642 141.254 43.9886 140.323 43.4375C139.396 42.8807 138.68 42.0994 138.175 41.0938C137.675 40.0824 137.425 38.8977 137.425 37.5398C137.425 36.1989 137.675 35.017 138.175 33.9943C138.68 32.9716 139.385 32.1733 140.288 31.5994C141.198 31.0256 142.26 30.7386 143.476 30.7386C144.215 30.7386 144.93 30.8608 145.624 31.1051C146.317 31.3494 146.939 31.733 147.49 32.2557C148.041 32.7784 148.476 33.4574 148.794 34.2926C149.112 35.1222 149.271 36.1307 149.271 37.3182V38.2216H138.865V36.3125H146.774C146.774 35.642 146.638 35.0483 146.365 34.5312C146.092 34.0085 145.709 33.5966 145.215 33.2955C144.726 32.9943 144.152 32.8438 143.493 32.8438C142.777 32.8438 142.152 33.0199 141.618 33.3722C141.09 33.7187 140.68 34.1733 140.391 34.7358C140.107 35.2926 139.965 35.8977 139.965 36.5511V38.0426C139.965 38.9176 140.118 39.6619 140.425 40.2756C140.737 40.8892 141.172 41.358 141.729 41.6818C142.286 42 142.936 42.1591 143.68 42.1591C144.163 42.1591 144.604 42.0909 145.002 41.9545C145.399 41.8125 145.743 41.6023 146.033 41.3239C146.323 41.0455 146.544 40.7017 146.698 40.2926L149.109 40.7273C148.916 41.4375 148.57 42.0597 148.07 42.5938C147.575 43.1222 146.953 43.5341 146.203 43.8295C145.459 44.1193 144.609 44.2642 143.655 44.2642ZM152.099 44V30.9091H154.647V44H152.099ZM153.386 28.8892C152.943 28.8892 152.562 28.7415 152.244 28.446C151.931 28.1449 151.775 27.7869 151.775 27.3722C151.775 26.9517 151.931 26.5937 152.244 26.2983C152.562 25.9972 152.943 25.8466 153.386 25.8466C153.829 25.8466 154.207 25.9972 154.519 26.2983C154.837 26.5937 154.997 26.9517 154.997 27.3722C154.997 27.7869 154.837 28.1449 154.519 28.446C154.207 28.7415 153.829 28.8892 153.386 28.8892ZM158.075 44V30.9091H160.538V32.9886H160.675C160.913 32.2841 161.334 31.7301 161.936 31.3267C162.544 30.9176 163.232 30.7131 163.999 30.7131C164.158 30.7131 164.345 30.7187 164.561 30.7301C164.783 30.7415 164.956 30.7557 165.081 30.7727V33.2102C164.979 33.1818 164.797 33.1506 164.536 33.1165C164.274 33.0767 164.013 33.0568 163.752 33.0568C163.149 33.0568 162.612 33.1847 162.141 33.4403C161.675 33.6903 161.305 34.0398 161.033 34.4886C160.76 34.9318 160.624 35.4375 160.624 36.0057V44H158.075ZM172.332 44.2642C171.104 44.2642 170.033 43.983 169.119 43.4205C168.204 42.858 167.494 42.071 166.988 41.0597C166.482 40.0483 166.229 38.8665 166.229 37.5142C166.229 36.1562 166.482 34.9687 166.988 33.9517C167.494 32.9347 168.204 32.1449 169.119 31.5824C170.033 31.0199 171.104 30.7386 172.332 30.7386C173.559 30.7386 174.63 31.0199 175.545 31.5824C176.46 32.1449 177.17 32.9347 177.676 33.9517C178.181 34.9687 178.434 36.1562 178.434 37.5142C178.434 38.8665 178.181 40.0483 177.676 41.0597C177.17 42.071 176.46 42.858 175.545 43.4205C174.63 43.983 173.559 44.2642 172.332 44.2642ZM172.34 42.125C173.136 42.125 173.795 41.9148 174.318 41.4943C174.84 41.0739 175.227 40.5142 175.477 39.8153C175.732 39.1165 175.86 38.3466 175.86 37.5057C175.86 36.6705 175.732 35.9034 175.477 35.2045C175.227 34.5 174.84 33.9347 174.318 33.5085C173.795 33.0824 173.136 32.8693 172.34 32.8693C171.539 32.8693 170.874 33.0824 170.346 33.5085C169.823 33.9347 169.434 34.5 169.178 35.2045C168.928 35.9034 168.803 36.6705 168.803 37.5057C168.803 38.3466 168.928 39.1165 169.178 39.8153C169.434 40.5142 169.823 41.0739 170.346 41.4943C170.874 41.9148 171.539 42.125 172.34 42.125Z" fill="black"/>
<path d="M196.331 18V52" stroke="black" stroke-width="2"/>
<path d="M223.769 31.1307C223.678 30.3239 223.303 29.6989 222.644 29.2557C221.984 28.8068 221.155 28.5824 220.155 28.5824C219.439 28.5824 218.82 28.696 218.297 28.9233C217.774 29.1449 217.368 29.4517 217.078 29.8438C216.794 30.2301 216.652 30.6705 216.652 31.1648C216.652 31.5795 216.749 31.9375 216.942 32.2386C217.141 32.5398 217.399 32.7926 217.717 32.9972C218.041 33.196 218.388 33.3636 218.757 33.5C219.127 33.6307 219.482 33.7386 219.823 33.8239L221.527 34.267C222.084 34.4034 222.655 34.5881 223.24 34.821C223.825 35.054 224.368 35.3608 224.868 35.7415C225.368 36.1222 225.771 36.5938 226.078 37.1562C226.391 37.7188 226.547 38.392 226.547 39.1761C226.547 40.1648 226.291 41.0426 225.78 41.8097C225.274 42.5767 224.538 43.1818 223.573 43.625C222.612 44.0682 221.45 44.2898 220.087 44.2898C218.78 44.2898 217.649 44.0824 216.695 43.6676C215.74 43.2528 214.993 42.6648 214.453 41.9034C213.913 41.1364 213.615 40.2273 213.558 39.1761H216.2C216.252 39.8068 216.456 40.3324 216.814 40.7528C217.178 41.1676 217.641 41.4773 218.203 41.6818C218.771 41.8807 219.394 41.9801 220.07 41.9801C220.814 41.9801 221.476 41.8636 222.055 41.6307C222.641 41.392 223.101 41.0625 223.436 40.642C223.771 40.2159 223.939 39.7187 223.939 39.1506C223.939 38.6335 223.791 38.2102 223.496 37.8807C223.206 37.5511 222.811 37.2784 222.311 37.0625C221.817 36.8466 221.257 36.6562 220.632 36.4915L218.57 35.929C217.172 35.5483 216.064 34.9886 215.246 34.25C214.433 33.5114 214.027 32.5341 214.027 31.3182C214.027 30.3125 214.3 29.4347 214.845 28.6847C215.391 27.9347 216.129 27.3523 217.061 26.9375C217.993 26.517 219.044 26.3068 220.215 26.3068C221.396 26.3068 222.439 26.5142 223.342 26.929C224.252 27.3438 224.967 27.9148 225.49 28.642C226.013 29.3636 226.286 30.1932 226.308 31.1307H223.769ZM233.299 44.2898C232.47 44.2898 231.72 44.1364 231.049 43.8295C230.379 43.517 229.847 43.0653 229.455 42.4744C229.069 41.8835 228.876 41.1591 228.876 40.3011C228.876 39.5625 229.018 38.9545 229.302 38.4773C229.586 38 229.97 37.6222 230.453 37.3438C230.935 37.0653 231.475 36.8551 232.072 36.7131C232.668 36.571 233.276 36.4631 233.896 36.3892C234.68 36.2983 235.316 36.2244 235.805 36.1676C236.293 36.1051 236.649 36.0057 236.87 35.8693C237.092 35.733 237.203 35.5114 237.203 35.2045V35.1449C237.203 34.4006 236.992 33.8239 236.572 33.4148C236.157 33.0057 235.538 32.8011 234.714 32.8011C233.856 32.8011 233.18 32.9915 232.685 33.3722C232.197 33.7472 231.859 34.1648 231.671 34.625L229.276 34.0795C229.56 33.2841 229.975 32.642 230.521 32.1534C231.072 31.6591 231.705 31.3011 232.421 31.0795C233.137 30.8523 233.89 30.7386 234.68 30.7386C235.203 30.7386 235.756 30.8011 236.342 30.9261C236.933 31.0455 237.484 31.267 237.995 31.5909C238.512 31.9148 238.935 32.3778 239.265 32.9801C239.595 33.5767 239.759 34.3523 239.759 35.3068V44H237.271V42.2102H237.168C237.004 42.5398 236.756 42.8636 236.427 43.1818C236.097 43.5 235.674 43.7642 235.157 43.9744C234.64 44.1847 234.021 44.2898 233.299 44.2898ZM233.853 42.2443C234.558 42.2443 235.16 42.1051 235.66 41.8267C236.166 41.5483 236.549 41.1847 236.81 40.7358C237.078 40.2812 237.211 39.7955 237.211 39.2784V37.5909C237.12 37.6818 236.944 37.767 236.683 37.8466C236.427 37.9205 236.134 37.9858 235.805 38.0426C235.475 38.0937 235.154 38.142 234.842 38.1875C234.529 38.2273 234.268 38.2614 234.058 38.2898C233.563 38.3523 233.112 38.4574 232.703 38.6051C232.299 38.7528 231.975 38.9659 231.731 39.2443C231.492 39.517 231.373 39.8807 231.373 40.3352C231.373 40.9659 231.606 41.4432 232.072 41.767C232.538 42.0852 233.131 42.2443 233.853 42.2443ZM232.251 29.3239L230.538 29.2727C230.538 28.3295 230.791 27.5767 231.296 27.0142C231.808 26.4517 232.438 26.1705 233.188 26.1705C233.535 26.1705 233.839 26.2301 234.1 26.3494C234.362 26.4631 234.606 26.5966 234.833 26.75C235.066 26.8977 235.296 27.0312 235.524 27.1506C235.756 27.2642 236.015 27.321 236.299 27.321C236.629 27.321 236.896 27.196 237.1 26.946C237.31 26.696 237.416 26.3864 237.416 26.017L239.095 26.1278C239.095 27.0767 238.839 27.8239 238.328 28.3693C237.816 28.9091 237.188 29.1818 236.444 29.1875C236.041 29.1875 235.705 29.1307 235.438 29.017C235.177 28.8977 234.944 28.7642 234.739 28.6165C234.535 28.4631 234.325 28.3267 234.109 28.2074C233.893 28.0881 233.634 28.0284 233.333 28.0284C233.015 28.0284 232.754 28.1534 232.549 28.4034C232.35 28.6477 232.251 28.9545 232.251 29.3239ZM248.668 44.2642C247.44 44.2642 246.369 43.983 245.455 43.4205C244.54 42.858 243.83 42.071 243.324 41.0597C242.818 40.0483 242.565 38.8665 242.565 37.5142C242.565 36.1562 242.818 34.9687 243.324 33.9517C243.83 32.9347 244.54 32.1449 245.455 31.5824C246.369 31.0199 247.44 30.7386 248.668 30.7386C249.895 30.7386 250.966 31.0199 251.881 31.5824C252.796 32.1449 253.506 32.9347 254.011 33.9517C254.517 34.9687 254.77 36.1562 254.77 37.5142C254.77 38.8665 254.517 40.0483 254.011 41.0597C253.506 42.071 252.796 42.858 251.881 43.4205C250.966 43.983 249.895 44.2642 248.668 44.2642ZM248.676 42.125C249.472 42.125 250.131 41.9148 250.653 41.4943C251.176 41.0739 251.563 40.5142 251.813 39.8153C252.068 39.1165 252.196 38.3466 252.196 37.5057C252.196 36.6705 252.068 35.9034 251.813 35.2045C251.563 34.5 251.176 33.9347 250.653 33.5085C250.131 33.0824 249.472 32.8693 248.676 32.8693C247.875 32.8693 247.21 33.0824 246.682 33.5085C246.159 33.9347 245.77 34.5 245.514 35.2045C245.264 35.9034 245.139 36.6705 245.139 37.5057C245.139 38.3466 245.264 39.1165 245.514 39.8153C245.77 40.5142 246.159 41.0739 246.682 41.4943C247.21 41.9148 247.875 42.125 248.676 42.125ZM264.171 44V26.5455H270.392C271.75 26.5455 272.875 26.7926 273.767 27.2869C274.659 27.7812 275.327 28.4574 275.77 29.3153C276.213 30.1676 276.435 31.1278 276.435 32.196C276.435 33.2699 276.21 34.2358 275.761 35.0938C275.318 35.946 274.648 36.6222 273.75 37.1222C272.858 37.6165 271.736 37.8636 270.384 37.8636H266.105V35.6307H270.145C271.003 35.6307 271.699 35.483 272.233 35.1875C272.767 34.8864 273.159 34.4773 273.409 33.9602C273.659 33.4432 273.784 32.8551 273.784 32.196C273.784 31.5369 273.659 30.9517 273.409 30.4403C273.159 29.929 272.764 29.5284 272.225 29.2386C271.69 28.9489 270.986 28.804 270.111 28.804H266.804V44H264.171ZM283.01 44.2898C282.18 44.2898 281.43 44.1364 280.76 43.8295C280.09 43.517 279.558 43.0653 279.166 42.4744C278.78 41.8835 278.587 41.1591 278.587 40.3011C278.587 39.5625 278.729 38.9545 279.013 38.4773C279.297 38 279.68 37.6222 280.163 37.3438C280.646 37.0653 281.186 36.8551 281.783 36.7131C282.379 36.571 282.987 36.4631 283.607 36.3892C284.391 36.2983 285.027 36.2244 285.516 36.1676C286.004 36.1051 286.359 36.0057 286.581 35.8693C286.803 35.733 286.913 35.5114 286.913 35.2045V35.1449C286.913 34.4006 286.703 33.8239 286.283 33.4148C285.868 33.0057 285.249 32.8011 284.425 32.8011C283.567 32.8011 282.891 32.9915 282.396 33.3722C281.908 33.7472 281.57 34.1648 281.382 34.625L278.987 34.0795C279.271 33.2841 279.686 32.642 280.232 32.1534C280.783 31.6591 281.416 31.3011 282.132 31.0795C282.848 30.8523 283.601 30.7386 284.391 30.7386C284.913 30.7386 285.467 30.8011 286.053 30.9261C286.644 31.0455 287.195 31.267 287.706 31.5909C288.223 31.9148 288.646 32.3778 288.976 32.9801C289.305 33.5767 289.47 34.3523 289.47 35.3068V44H286.982V42.2102H286.879C286.715 42.5398 286.467 42.8636 286.138 43.1818C285.808 43.5 285.385 43.7642 284.868 43.9744C284.351 44.1847 283.732 44.2898 283.01 44.2898ZM283.564 42.2443C284.269 42.2443 284.871 42.1051 285.371 41.8267C285.877 41.5483 286.26 41.1847 286.521 40.7358C286.788 40.2812 286.922 39.7955 286.922 39.2784V37.5909C286.831 37.6818 286.655 37.767 286.394 37.8466C286.138 37.9205 285.845 37.9858 285.516 38.0426C285.186 38.0937 284.865 38.142 284.553 38.1875C284.24 38.2273 283.979 38.2614 283.769 38.2898C283.274 38.3523 282.823 38.4574 282.413 38.6051C282.01 38.7528 281.686 38.9659 281.442 39.2443C281.203 39.517 281.084 39.8807 281.084 40.3352C281.084 40.9659 281.317 41.4432 281.783 41.767C282.249 42.0852 282.842 42.2443 283.564 42.2443ZM301.157 38.571V30.9091H303.714V44H301.208V41.733H301.072C300.771 42.4318 300.288 43.0142 299.623 43.4801C298.964 43.9403 298.143 44.1705 297.16 44.1705C296.319 44.1705 295.575 43.9858 294.927 43.6165C294.285 43.2415 293.779 42.6875 293.41 41.9545C293.046 41.2216 292.864 40.3153 292.864 39.2358V30.9091H295.413V38.929C295.413 39.821 295.66 40.5312 296.154 41.0597C296.649 41.5881 297.291 41.8523 298.08 41.8523C298.558 41.8523 299.032 41.733 299.504 41.4943C299.981 41.2557 300.376 40.8949 300.688 40.4119C301.006 39.929 301.163 39.3153 301.157 38.571ZM309.686 26.5455V44H307.138V26.5455H309.686ZM318.629 44.2642C317.401 44.2642 316.33 43.983 315.416 43.4205C314.501 42.858 313.791 42.071 313.285 41.0597C312.779 40.0483 312.526 38.8665 312.526 37.5142C312.526 36.1562 312.779 34.9687 313.285 33.9517C313.791 32.9347 314.501 32.1449 315.416 31.5824C316.33 31.0199 317.401 30.7386 318.629 30.7386C319.856 30.7386 320.927 31.0199 321.842 31.5824C322.756 32.1449 323.467 32.9347 323.972 33.9517C324.478 34.9687 324.731 36.1562 324.731 37.5142C324.731 38.8665 324.478 40.0483 323.972 41.0597C323.467 42.071 322.756 42.858 321.842 43.4205C320.927 43.983 319.856 44.2642 318.629 44.2642ZM318.637 42.125C319.433 42.125 320.092 41.9148 320.614 41.4943C321.137 41.0739 321.524 40.5142 321.774 39.8153C322.029 39.1165 322.157 38.3466 322.157 37.5057C322.157 36.6705 322.029 35.9034 321.774 35.2045C321.524 34.5 321.137 33.9347 320.614 33.5085C320.092 33.0824 319.433 32.8693 318.637 32.8693C317.836 32.8693 317.171 33.0824 316.643 33.5085C316.12 33.9347 315.731 34.5 315.475 35.2045C315.225 35.9034 315.1 36.6705 315.1 37.5057C315.1 38.3466 315.225 39.1165 315.475 39.8153C315.731 40.5142 316.12 41.0739 316.643 41.4943C317.171 41.9148 317.836 42.125 318.637 42.125Z" fill="black"/>
<path d="M342.331 18V52" stroke="black" stroke-width="2"/>
<path d="M374.746 32.2216H372.087C371.984 31.6534 371.794 31.1534 371.516 30.7216C371.237 30.2898 370.896 29.9233 370.493 29.6222C370.09 29.321 369.638 29.0937 369.138 28.9403C368.644 28.7869 368.118 28.7102 367.561 28.7102C366.555 28.7102 365.655 28.9631 364.859 29.4688C364.07 29.9744 363.445 30.7159 362.984 31.6932C362.53 32.6705 362.303 33.8636 362.303 35.2727C362.303 36.6932 362.53 37.892 362.984 38.8693C363.445 39.8466 364.073 40.5852 364.868 41.0852C365.663 41.5852 366.558 41.8352 367.553 41.8352C368.104 41.8352 368.627 41.7614 369.121 41.6136C369.621 41.4602 370.073 41.2358 370.476 40.9403C370.879 40.6449 371.22 40.2841 371.499 39.858C371.783 39.4261 371.979 38.9318 372.087 38.375L374.746 38.3835C374.604 39.2415 374.328 40.0312 373.919 40.7528C373.516 41.4688 372.996 42.0881 372.359 42.6108C371.729 43.1278 371.007 43.5284 370.195 43.8125C369.382 44.0966 368.496 44.2386 367.536 44.2386C366.024 44.2386 364.678 43.8807 363.496 43.1648C362.314 42.4432 361.382 41.4119 360.7 40.071C360.024 38.7301 359.686 37.1307 359.686 35.2727C359.686 33.4091 360.027 31.8097 360.709 30.4744C361.391 29.1335 362.323 28.1051 363.504 27.3892C364.686 26.6676 366.03 26.3068 367.536 26.3068C368.462 26.3068 369.325 26.4403 370.127 26.7074C370.933 26.9687 371.658 27.3551 372.3 27.8665C372.942 28.3722 373.473 28.9915 373.894 29.7244C374.314 30.4517 374.598 31.2841 374.746 32.2216ZM385.985 38.571V30.9091H388.542V44H386.036V41.733H385.9C385.599 42.4318 385.116 43.0142 384.451 43.4801C383.792 43.9403 382.971 44.1705 381.988 44.1705C381.147 44.1705 380.403 43.9858 379.755 43.6165C379.113 43.2415 378.607 42.6875 378.238 41.9545C377.874 41.2216 377.693 40.3153 377.693 39.2358V30.9091H380.241V38.929C380.241 39.821 380.488 40.5312 380.982 41.0597C381.477 41.5881 382.119 41.8523 382.908 41.8523C383.386 41.8523 383.86 41.733 384.332 41.4943C384.809 41.2557 385.204 40.8949 385.516 40.4119C385.835 39.929 385.991 39.3153 385.985 38.571ZM391.966 44V30.9091H394.429V32.9886H394.565C394.804 32.2841 395.225 31.7301 395.827 31.3267C396.435 30.9176 397.122 30.7131 397.889 30.7131C398.048 30.7131 398.236 30.7187 398.452 30.7301C398.673 30.7415 398.847 30.7557 398.972 30.7727V33.2102C398.869 33.1818 398.688 33.1506 398.426 33.1165C398.165 33.0767 397.903 33.0568 397.642 33.0568C397.04 33.0568 396.503 33.1847 396.031 33.4403C395.565 33.6903 395.196 34.0398 394.923 34.4886C394.651 34.9318 394.514 35.4375 394.514 36.0057V44H391.966ZM401.177 44V30.9091H403.725V44H401.177ZM402.464 28.8892C402.021 28.8892 401.64 28.7415 401.322 28.446C401.009 28.1449 400.853 27.7869 400.853 27.3722C400.853 26.9517 401.009 26.5937 401.322 26.2983C401.64 25.9972 402.021 25.8466 402.464 25.8466C402.907 25.8466 403.285 25.9972 403.597 26.2983C403.916 26.5937 404.075 26.9517 404.075 27.3722C404.075 27.7869 403.916 28.1449 403.597 28.446C403.285 28.7415 402.907 28.8892 402.464 28.8892ZM413.264 30.9091V32.9545H406.114V30.9091H413.264ZM408.031 27.7727H410.58V40.1562C410.58 40.6506 410.653 41.0227 410.801 41.2727C410.949 41.517 411.139 41.6847 411.372 41.7756C411.611 41.8608 411.869 41.9034 412.148 41.9034C412.352 41.9034 412.531 41.8892 412.685 41.8608C412.838 41.8324 412.957 41.8097 413.043 41.7926L413.503 43.8977C413.355 43.9545 413.145 44.0114 412.872 44.0682C412.6 44.1307 412.259 44.1648 411.85 44.1705C411.179 44.1818 410.554 44.0625 409.975 43.8125C409.395 43.5625 408.926 43.1761 408.568 42.6534C408.21 42.1307 408.031 41.4744 408.031 40.6847V27.7727ZM416.083 44V30.9091H418.631V44H416.083ZM417.37 28.8892C416.927 28.8892 416.546 28.7415 416.228 28.446C415.916 28.1449 415.759 27.7869 415.759 27.3722C415.759 26.9517 415.916 26.5937 416.228 26.2983C416.546 25.9972 416.927 25.8466 417.37 25.8466C417.813 25.8466 418.191 25.9972 418.504 26.2983C418.822 26.5937 418.981 26.9517 418.981 27.3722C418.981 27.7869 418.822 28.1449 418.504 28.446C418.191 28.7415 417.813 28.8892 417.37 28.8892ZM422.264 44V26.5455H424.813V33.0312H424.966C425.114 32.7585 425.327 32.4432 425.605 32.0852C425.884 31.7273 426.27 31.4148 426.764 31.1477C427.259 30.875 427.912 30.7386 428.725 30.7386C429.781 30.7386 430.725 31.0057 431.554 31.5398C432.384 32.0739 433.034 32.8437 433.506 33.8494C433.983 34.8551 434.222 36.0653 434.222 37.4801C434.222 38.8949 433.986 40.108 433.514 41.1193C433.043 42.125 432.395 42.9006 431.571 43.446C430.747 43.9858 429.807 44.2557 428.75 44.2557C427.955 44.2557 427.304 44.1222 426.798 43.8551C426.298 43.5881 425.906 43.2756 425.622 42.9176C425.338 42.5597 425.119 42.2415 424.966 41.9631H424.753V44H422.264ZM424.761 37.4545C424.761 38.375 424.895 39.1818 425.162 39.875C425.429 40.5682 425.815 41.1108 426.321 41.5028C426.827 41.8892 427.446 42.0824 428.179 42.0824C428.94 42.0824 429.577 41.8807 430.088 41.4773C430.6 41.0682 430.986 40.5142 431.247 39.8153C431.514 39.1165 431.648 38.3295 431.648 37.4545C431.648 36.5909 431.517 35.8153 431.256 35.1278C431 34.4403 430.614 33.8977 430.097 33.5C429.585 33.1023 428.946 32.9034 428.179 32.9034C427.44 32.9034 426.815 33.0937 426.304 33.4744C425.798 33.8551 425.415 34.3864 425.153 35.0682C424.892 35.75 424.761 36.5455 424.761 37.4545ZM440.893 44.2898C440.063 44.2898 439.313 44.1364 438.643 43.8295C437.972 43.517 437.441 43.0653 437.049 42.4744C436.663 41.8835 436.47 41.1591 436.47 40.3011C436.47 39.5625 436.612 38.9545 436.896 38.4773C437.18 38 437.563 37.6222 438.046 37.3438C438.529 37.0653 439.069 36.8551 439.666 36.7131C440.262 36.571 440.87 36.4631 441.489 36.3892C442.274 36.2983 442.91 36.2244 443.399 36.1676C443.887 36.1051 444.242 36.0057 444.464 35.8693C444.685 35.733 444.796 35.5114 444.796 35.2045V35.1449C444.796 34.4006 444.586 33.8239 444.166 33.4148C443.751 33.0057 443.131 32.8011 442.308 32.8011C441.45 32.8011 440.774 32.9915 440.279 33.3722C439.791 33.7472 439.453 34.1648 439.265 34.625L436.87 34.0795C437.154 33.2841 437.569 32.642 438.114 32.1534C438.666 31.6591 439.299 31.3011 440.015 31.0795C440.731 30.8523 441.484 30.7386 442.274 30.7386C442.796 30.7386 443.35 30.8011 443.935 30.9261C444.526 31.0455 445.078 31.267 445.589 31.5909C446.106 31.9148 446.529 32.3778 446.859 32.9801C447.188 33.5767 447.353 34.3523 447.353 35.3068V44H444.864V42.2102H444.762C444.597 42.5398 444.35 42.8636 444.021 43.1818C443.691 43.5 443.268 43.7642 442.751 43.9744C442.234 44.1847 441.614 44.2898 440.893 44.2898ZM441.447 42.2443C442.151 42.2443 442.754 42.1051 443.254 41.8267C443.759 41.5483 444.143 41.1847 444.404 40.7358C444.671 40.2812 444.805 39.7955 444.805 39.2784V37.5909C444.714 37.6818 444.538 37.767 444.276 37.8466C444.021 37.9205 443.728 37.9858 443.399 38.0426C443.069 38.0937 442.748 38.142 442.435 38.1875C442.123 38.2273 441.862 38.2614 441.651 38.2898C441.157 38.3523 440.705 38.4574 440.296 38.6051C439.893 38.7528 439.569 38.9659 439.325 39.2443C439.086 39.517 438.967 39.8807 438.967 40.3352C438.967 40.9659 439.2 41.4432 439.666 41.767C440.131 42.0852 440.725 42.2443 441.447 42.2443Z" fill="black"/>
</svg>
