<svg width="487" height="88" viewBox="0 0 487 88" fill="none" xmlns="http://www.w3.org/2000/svg">
<path d="M81.4299 67.6556C79.9121 69.6382 78.2198 71.4612 76.3507 73.1141C71.0981 77.7575 65.0287 80.776 58.1591 82.1836C56.0744 82.6109 53.9697 82.8789 51.8394 82.9149C50.8749 82.9308 49.9098 82.9411 48.9453 82.9229C48.1114 82.9069 47.2752 82.8841 46.4465 82.8002C43.5878 82.511 40.7792 81.9521 38.054 81.0412C30.2073 78.418 23.7376 73.8436 18.7428 67.2421C14.1712 61.2007 11.6245 54.3682 10.9811 46.8289C10.7513 44.1362 10.8163 41.4452 11.1591 38.761C11.4403 36.557 11.8823 34.3862 12.5485 32.2684C15.0507 24.3117 19.6063 17.7757 26.2278 12.696C29.7567 9.98896 33.6558 7.97154 37.8954 6.62261C40.1581 5.90279 42.4578 5.33413 44.8283 5.10313C46.2799 4.96167 47.7315 4.78315 49.1871 4.72098C51.3717 4.62743 53.5476 4.84132 55.7094 5.13963C57.7975 5.42767 59.8486 5.90907 61.8569 6.55188C68.4162 8.65143 74.0646 12.2009 78.7896 17.2116C79.2653 17.7158 79.7273 18.2337 80.1956 18.7448C80.215 18.7305 80.2338 18.7157 80.2532 18.7014C80.2064 18.6313 80.1614 18.56 80.1117 18.491C77.5838 14.9843 74.6105 11.9083 71.1888 9.26573C67.0439 6.06535 62.4774 3.66464 57.4895 2.06816C53.9133 0.923417 50.252 0.188773 46.4972 0.0655723C44.2043 -0.00971721 41.8994 -0.0787326 39.6111 0.212729C38.1641 0.39696 36.7119 0.567503 35.282 0.847557C31.2357 1.63981 27.3737 2.98304 23.717 4.89494C15.0986 9.39977 8.65512 16.0338 4.35164 24.7389C2.81619 27.8451 1.66802 31.0991 0.982433 34.502C0.717208 35.8184 0.517007 37.1491 0.319657 38.4781C0.189041 39.357 0.0669806 40.2428 0.0310469 41.1297C-0.0208572 42.4342 0.0127949 43.7426 0.000817018 45.0488C-0.0145831 46.6835 0.190182 48.2988 0.407495 49.9135C0.914558 53.6752 1.915 57.3022 3.382 60.8003C5.50608 65.8646 8.4726 70.3774 12.2799 74.3398C15.8287 78.0336 19.8904 81.0292 24.4654 83.3318C28.0639 85.1428 31.838 86.458 35.7953 87.2058C37.4693 87.5224 39.1673 87.7494 40.8648 87.896C42.2999 88.0197 43.7503 87.9678 45.1939 87.9952C47.4617 88.0386 49.7073 87.7842 51.9335 87.3997C55.974 86.7022 59.8566 85.4827 63.5503 83.6894C70.9966 80.0738 76.9604 74.783 81.4658 67.8456C81.5519 67.7132 81.6278 67.5746 81.7082 67.4394C81.5662 67.4794 81.4983 67.5678 81.431 67.6556H81.4299Z" fill="black"/>
<path d="M441.692 58.4211C440.633 54.0759 439.576 49.7297 438.515 45.3851C437.503 41.2431 436.485 37.1027 435.472 32.9612C434.982 30.9552 434.498 28.9475 434.008 26.9409C433.637 25.4243 432.873 24.1615 431.532 23.319C430.313 22.5536 429.041 22.4018 427.785 23.2352C427.379 23.505 427.005 23.8449 426.674 24.2054C425.925 25.0222 425.366 25.973 424.862 26.9569C423.616 29.3901 422.369 31.8227 421.118 34.2537C418.314 39.707 415.507 45.1593 412.701 50.6115C412.234 51.5195 411.763 52.4253 411.238 53.4405C411.019 53.019 410.861 52.7196 410.706 52.4178C409.419 49.8991 408.137 47.378 406.847 44.8604C405.143 41.5322 403.433 38.207 401.726 34.8805C400.286 32.0766 398.856 29.2686 397.406 26.4703C396.888 25.4722 396.253 24.5505 395.434 23.7662C393.985 22.3796 392.282 22.3768 390.767 23.4411C389.691 24.1974 388.964 25.2326 388.642 26.516C388.047 28.8876 387.478 31.2649 386.892 33.6388C385.632 38.7534 384.366 43.8668 383.108 48.9819C381.89 53.9316 380.678 58.8831 379.465 63.8339C379.436 63.9543 379.43 64.0809 379.41 64.2292H387.578C389.525 54.7929 391.467 45.3777 393.409 35.9625C393.611 36.1211 393.709 36.2985 393.802 36.477C395.571 39.8582 397.339 43.2388 399.106 46.6211C401.724 51.6359 404.342 56.6506 406.957 61.6671C407.363 62.4456 407.811 63.1865 408.477 63.7809C410.007 65.1441 412.835 65.423 414.473 63.3605C414.814 62.9321 415.119 62.4656 415.375 61.9819C416.564 59.7335 417.73 57.4731 418.905 55.2173C422.176 48.9368 425.447 42.6564 428.721 36.3772C428.794 36.2374 428.889 36.1097 429.045 35.8661C431.034 45.4017 432.997 54.8111 434.954 64.1944C435.747 64.3187 442.627 64.2817 443.057 64.1533C443.038 64.0313 443.028 63.9018 442.998 63.778C442.564 61.9916 442.126 60.2063 441.691 58.4205L441.692 58.4211Z" fill="black"/>
<path d="M130.21 33.6365C132.068 30.346 133.926 27.056 135.784 23.765C135.862 23.6258 135.922 23.4764 136.01 23.2921H126.77C121.377 33.1579 115.997 43.0009 110.577 52.9163C110.441 52.6853 110.342 52.5284 110.254 52.3659C107.723 47.6894 105.193 43.0134 102.664 38.3358C100.028 33.4585 97.3916 28.5812 94.7645 23.6994C94.6036 23.4011 94.4325 23.2522 94.0692 23.2539C91.2749 23.2688 88.4801 23.2613 85.6858 23.2648C85.5672 23.2648 85.448 23.2996 85.278 23.3264C85.4314 23.6133 85.5524 23.8465 85.6795 24.0764C88.9295 29.9821 92.1773 35.8883 95.437 41.7883C95.6383 42.1522 95.6862 42.4282 95.4689 42.8246C93.6979 46.0547 91.9565 49.3007 90.2049 52.541C90.1536 52.6362 90.0874 52.7229 89.9705 52.902C89.6676 52.3419 89.4149 51.8759 89.1623 51.4094C86.4541 46.3997 83.7454 41.3901 81.0378 36.38C78.7449 32.1369 76.4514 27.8951 74.1671 23.6475C74.0114 23.3583 73.8283 23.2534 73.4986 23.2545C70.7043 23.267 67.9095 23.2613 65.1152 23.2642C64.9966 23.2642 64.878 23.2944 64.7217 23.3161C64.7861 23.4558 64.8198 23.5425 64.8643 23.623C68.1211 29.5469 71.3768 35.4708 74.6365 41.393C77.7952 47.1321 80.9528 52.8718 84.1207 58.6058C84.8092 59.8515 85.5067 61.0949 86.2608 62.3007C86.8277 63.2076 87.5487 63.9953 88.5177 64.5097C89.3699 64.962 90.2443 64.998 91.073 64.5063C91.5727 64.2097 92.0381 63.831 92.4533 63.4215C93.1885 62.6965 93.7178 61.8101 94.2238 60.9164C96.122 57.5614 98.0151 54.2036 99.9127 50.8481C99.9806 50.7278 100.074 50.6222 100.181 50.4751C100.273 50.6336 100.331 50.7306 100.386 50.8299C102.204 54.1203 104.021 57.412 105.841 60.7019C106.441 61.785 107.098 62.8254 107.996 63.6964C109.585 65.2375 111.202 65.2307 112.791 63.6719C113.559 62.919 114.155 62.0406 114.681 61.1131C116.641 57.6618 118.593 54.2065 120.545 50.7511C123.767 45.0468 126.988 39.3419 130.209 33.637L130.21 33.6365Z" fill="black"/>
<path d="M167.464 49.9958C164.513 44.9907 161.564 39.9845 158.612 34.9795C157.078 32.3791 155.548 29.7765 154.003 27.183C153.15 25.7508 152.005 24.6044 150.526 23.8155C149.214 23.1157 147.891 23.0621 146.555 23.7733C145.045 24.5775 143.831 25.7 142.919 27.1425C142.412 27.945 141.934 28.7658 141.442 29.578C137.715 35.7347 133.987 41.8913 130.259 48.0479C127.122 53.2298 123.984 58.4105 120.847 63.5929C120.742 63.7652 120.653 63.9466 120.525 64.1793C120.763 64.2004 120.926 64.2266 121.089 64.2283C123.769 64.2483 126.449 64.2523 129.128 64.2934C129.61 64.3008 129.873 64.1342 130.12 63.7332C136.038 54.131 141.969 44.5361 147.899 34.9407C148.004 34.7702 148.122 34.6076 148.281 34.3726C149.101 35.717 149.879 36.9929 150.657 38.2688C151.427 39.5339 152.205 40.795 152.967 42.0647C153.732 43.34 154.545 44.5886 155.315 45.97C154.996 45.97 154.791 45.97 154.585 45.97C151.411 45.97 148.236 45.9735 145.062 45.9649C144.736 45.9638 144.502 46.0134 144.308 46.3242C142.998 48.4164 141.666 50.4948 140.344 52.5796C140.29 52.6651 140.272 52.7729 140.22 52.9172C140.501 52.9172 140.728 52.9172 140.955 52.9172C146.98 52.9172 153.005 52.9235 159.031 52.9058C159.507 52.9047 159.776 53.0376 160.026 53.4494C162.11 56.8939 164.222 60.3213 166.313 63.7612C166.513 64.0897 166.737 64.2363 167.128 64.2369C169.845 64.2409 172.563 64.2654 175.28 64.2802C175.441 64.2814 175.603 64.2551 175.831 64.2363C175.711 64.0104 175.63 63.8445 175.537 63.6865C172.847 59.1229 170.155 54.5599 167.465 49.9969L167.464 49.9958Z" fill="black"/>
<path d="M249.156 56.8044C242.465 56.8044 235.773 56.8095 229.082 56.7998C227.812 56.7981 226.541 56.7377 225.271 56.7074C223.556 56.6669 221.924 56.2551 220.384 55.5256C217.196 54.0158 214.915 51.6522 213.813 48.2625C213.078 46.0021 213.004 43.6766 213.393 41.3444C214.095 37.1293 216.431 34.0978 220.199 32.1465C222.179 31.1215 224.322 30.74 226.527 30.7348C234.073 30.7172 241.62 30.7286 249.167 30.7268C249.407 30.7268 249.647 30.7052 249.909 30.6926V23.2606C249.63 23.2606 249.406 23.2606 249.182 23.2606C241.864 23.2606 234.545 23.2566 227.226 23.2658C226.26 23.2669 225.292 23.3182 224.327 23.3741C222.344 23.4899 220.421 23.9046 218.562 24.5993C214.188 26.234 210.841 29.0796 208.572 33.1618C207.099 35.8135 206.411 38.7001 206.253 41.7066C206.112 44.3685 206.288 47.0082 207.001 49.6023C208.313 54.3775 211.021 58.1602 215.077 60.9636C218.416 63.2707 222.191 64.2335 226.21 64.2729C230.03 64.3105 233.852 64.2809 237.673 64.2809C241.532 64.2809 245.391 64.2815 249.25 64.2786C249.467 64.2786 249.684 64.2489 249.888 64.2335C250.012 63.1173 249.961 57.2413 249.817 56.8038H249.157L249.156 56.8044Z" fill="black"/>
<path d="M486.331 23.3034H450.631C450.513 24.1607 450.555 63.832 450.671 64.2387C450.721 64.2506 450.775 64.2752 450.83 64.2752C462.56 64.278 474.29 64.2791 486.02 64.2791C486.095 64.2791 486.171 64.2632 486.245 64.2506C486.261 64.2478 486.276 64.2307 486.289 64.2187C486.304 64.2061 486.317 64.1919 486.327 64.1816V56.8044H465.192C464.013 56.8044 462.835 56.8078 461.656 56.8032C460.487 56.7992 459.318 56.8215 458.136 56.7884V30.7285C459.526 30.7285 460.871 30.7285 462.217 30.7285C463.547 30.7285 464.879 30.7285 466.209 30.7285C467.559 30.7285 468.909 30.7285 470.259 30.7285C471.59 30.7285 472.921 30.7285 474.251 30.7285C475.602 30.7285 476.951 30.7285 478.301 30.7285C479.632 30.7285 480.963 30.732 482.294 30.7274C483.635 30.7234 484.976 30.7462 486.331 30.7126V23.3022L486.331 23.3034Z" fill="black"/>
<path d="M165.35 30.7277H181.584V56.8504C181.584 58.0852 181.581 59.3207 181.584 60.5555C181.588 61.7807 181.569 63.007 181.597 64.2527H188.535V30.7289C189.909 30.7289 191.235 30.7289 192.561 30.7289C193.911 30.7289 195.261 30.7289 196.611 30.7289C197.941 30.7289 199.273 30.7317 200.603 30.7283C201.945 30.7249 203.287 30.7437 204.637 30.7169V23.2935H165.35V30.7283L165.35 30.7277Z" fill="black"/>
<path d="M318.655 23.3018V30.7189H334.848V55.8765C334.848 57.2824 334.846 58.6878 334.848 60.0938C334.85 61.473 334.838 62.8521 334.855 64.2159C335.654 64.3351 341.349 64.3015 341.804 64.1726V54.6251C341.804 53.0291 341.804 51.4338 341.804 49.8379C341.804 48.2614 341.804 46.6843 341.804 45.1078C341.804 43.5119 341.804 41.9165 341.804 40.3206C341.804 38.7247 341.802 37.1294 341.804 35.5335C341.807 33.9472 341.79 32.3605 341.815 30.7292C343.225 30.7292 344.552 30.7292 345.88 30.7292C347.23 30.7292 348.579 30.7292 349.929 30.7292C351.26 30.7292 352.59 30.7377 353.92 30.7269C355.258 30.7155 356.598 30.776 357.926 30.6915C358.033 29.5171 357.989 23.7158 357.876 23.3023H318.652L318.655 23.3018Z" fill="black"/>
<path d="M291.538 23.3821V39.7381H267.561C267.417 40.357 267.441 46.8039 267.593 47.2414H291.557V64.2626C292.223 64.2688 292.844 64.2768 293.465 64.2797C294.092 64.2825 294.72 64.2802 295.347 64.2802C295.974 64.2802 296.639 64.2882 297.285 64.278C297.902 64.2677 298.524 64.327 299.121 64.2397C299.249 63.1589 299.196 23.7243 299.076 23.3227C298.417 23.203 291.98 23.2372 291.537 23.3809L291.538 23.3821Z" fill="black"/>
<path d="M257.279 23.2847C257.153 24.0256 257.187 63.8207 257.308 64.2388H264.679C264.799 63.5235 264.767 23.7067 264.646 23.2847H257.279Z" fill="black"/>
<path d="M364.674 23.2866C364.545 24.0087 364.577 63.8192 364.704 64.2396H371.5C371.609 63.4964 371.575 23.7207 371.465 23.2866H364.674Z" fill="black"/>
<path d="M461.192 40.3892V47.1784C462.362 47.2959 484.247 47.2457 484.673 47.1276V40.3772C484.129 40.2449 461.63 40.258 461.192 40.3892Z" fill="black"/>
<path d="M27.6303 27.4131C27.6046 27.4405 27.5784 27.4678 27.5527 27.4952C35.4764 35.6208 43.3995 43.7464 51.3665 51.917C56.1245 46.2526 60.8398 40.6378 65.5551 35.0236C65.5243 34.9945 65.4941 34.966 65.4633 34.9369C60.6328 39.2683 55.8023 43.5992 50.9016 47.9939C43.1126 41.1055 35.3714 34.2593 27.6303 27.4131Z" fill="black"/>
</svg>
